<svg xmlns="http://www.w3.org/2000/svg" width="235" height="49" viewBox="0 0 235 49" fill="none">
    <g clip-path="url(#clip0)">
        <path fill-rule="evenodd" clip-rule="evenodd" d="M14.9359 33.5093V34.8102C14.9359 37.7258 16.6966 40.6485 18.2424 42.0639C19.0723 42.8238 20.4189 43.7742 21.4482 44.2141C25.1831 45.8105 28.9046 45.4958 32.2844 43.3194C32.9435 42.895 33.239 42.577 33.8237 42.116C34.1806 41.8344 34.1784 41.7484 34.4391 41.4262C34.7104 41.091 34.8218 41.035 35.0889 40.6405C37.491 37.0934 37.8296 33.7325 36.2546 29.7737C35.3522 27.5056 33.0202 25.1874 30.8292 24.2335C29.2381 23.5408 28.4458 23.4083 26.3862 23.1729C25.0163 23.0163 22.8443 23.5973 21.8591 23.9929C20.5422 24.5217 19.4352 25.1956 18.5058 26.127C16.5575 28.0794 14.9359 30.3898 14.9359 33.5093Z" fill="#E31E24" />
        <path fill-rule="evenodd" clip-rule="evenodd" d="M36.8156 46.1272C36.4955 46.2115 36.6384 46.0695 36.5536 46.3874L36.8156 46.1272C37.7932 45.868 40.5055 43.3103 41.1589 42.5046C43.5172 39.5962 45.8331 35.4021 45.8592 31.3015C45.8786 28.2518 46.0749 27.573 45.1468 24.327C44.545 22.2222 43.6425 20.5273 42.5808 18.9398C42.3295 18.5639 42.0667 18.1738 41.7542 17.8092C39.3921 15.0523 37.365 13.2673 33.785 11.8029C30.4641 10.4444 29.8457 10.6267 26.2783 10.2791L23.5427 10.445C16.2591 11.6939 10.5113 15.7796 7.76616 22.6185C6.1396 26.6708 5.871 31.7451 7.4308 36.1478C8.49352 39.1474 9.9782 41.2699 12.1517 43.428C12.8951 44.1661 13.4116 44.7689 14.2808 45.3467C14.0377 44.4429 10.9392 42.9243 9.40495 37.0495C8.09823 32.0458 9.29987 26.6022 12.1818 22.84C13.1232 21.6112 15.1195 19.6302 16.4823 18.7846C21.2638 15.8177 26.4348 14.9605 32.3424 17.1376C33.8928 17.709 35.3816 18.5474 36.6312 19.5135C38.9785 21.3284 41.213 24.3039 42.172 27.1505C44.0409 32.6981 43.3201 37.9142 40.0135 42.6682C39.791 42.9882 39.5777 43.2801 39.3343 43.5549C39.0307 43.8975 38.8626 44.1527 38.5541 44.4713C37.8408 45.2082 37.1683 45.6041 36.8155 46.1272L36.8156 46.1272Z" fill="#E31E24" />
        <path fill-rule="evenodd" clip-rule="evenodd" d="M-3.72598e-05 25.3142C-3.72598e-05 32.2109 2.90301 38.0979 7.49952 42.7137C7.76004 42.9753 7.84827 43.0571 8.12294 43.2654C9.05401 43.9714 10.2743 45.1662 11.6659 45.9917C12.9067 46.728 15.4756 48.1693 16.7701 48.4687C16.545 48.1637 14.6212 47.2309 14.1083 46.9488C13.2558 46.4799 12.3892 45.7786 11.6592 45.2178C10.1044 44.0231 8.74122 42.5161 7.57839 40.9444C5.47067 38.0956 3.27541 33.3174 3.27541 28.4362C3.27541 24.2775 3.80639 21.3153 5.50074 17.8977C7.59392 13.6754 11.6962 9.33719 15.984 7.363C17.7024 6.57178 19.3697 5.97409 21.2787 5.59563C26.3935 4.58153 30.9884 4.96227 35.5039 6.97422C40.3973 9.15457 43.7945 12.3854 46.3865 16.8522C47.7982 19.2848 49.131 23.1735 49.131 26.6151C49.131 31.1339 48.589 34.6297 46.4218 38.4942C45.8714 39.4757 45.355 40.2031 44.7292 41.1063L43.3277 42.8368C43.1508 43.0469 43.006 43.1702 42.8098 43.3633C42.0545 44.1064 41.3964 44.7413 40.5413 45.4036C39.7183 46.0408 38.9828 46.5731 38.0719 47.1145L36.7244 47.8578C36.4285 47.9851 36.2788 48.0234 35.9826 48.162L35.2434 48.5988C36.8445 48.4665 41.7348 45.5354 43.3371 44.147C47.4891 40.5496 50.3001 36.8369 51.7255 31.1422C52.5019 28.0405 52.7608 24.4875 52.0682 21.0973C51.3055 17.3641 50.102 14.3355 47.8578 11.3589C45.9586 8.84002 45.9643 8.95564 43.7277 6.8742L42.1864 5.67277C40.457 4.46858 38.6845 3.38804 36.6474 2.5869C32.6077 0.998177 30.0555 0.598816 25.4171 0.598816C18.1755 0.598816 11.2633 4.2983 7.63158 7.91582C6.55525 8.988 5.60285 10.0195 4.69601 11.2451C4.25524 11.8409 3.8417 12.469 3.44725 13.1271C1.34794 16.6297 -6.10352e-05 20.5918 -6.10352e-05 25.3142H-3.72598e-05Z" fill="#E31E24" />
        <path d="M73.4221 21.2914V17.1586H72.1313V9.02255H69.9557V17.1586H65.4596V9.02255H63.284V19.1026H71.5076V21.2914H73.4221ZM75.4241 9.02255V19.1026H82.6614V17.2018H77.5996V14.9554H82.1392V13.069H77.5996V10.9234H82.5744V9.02255H75.4241ZM91.5816 9.02255V13.0834H87.0275V9.02255H84.8519V19.1026H87.0275V15.0418H91.5816V19.1026H93.7571V9.02255H91.5816ZM95.5126 9.02255V10.9666H98.6308V19.1026H100.792V10.9666H103.91V9.02255H95.5125H95.5126ZM105.666 9.02255V19.1026H107.841V15.7906H109.494C111.946 15.7906 113.875 15.013 113.875 12.4066C113.875 9.80015 111.946 9.02256 109.494 9.02256H105.666V9.02255ZM111.656 12.4065C111.656 13.5874 110.713 13.8898 109.596 13.8898H107.841V10.9233H109.596C110.713 10.9233 111.656 11.2114 111.656 12.4065Z" fill="#E31E24" />
        <path d="M119.632 9.02255V19.1026H121.807V15.7906H123.461C125.912 15.7906 127.841 15.013 127.841 12.4066C127.841 9.80015 125.912 9.02257 123.461 9.02257H119.632V9.02255ZM125.622 12.4065C125.622 13.5874 124.679 13.8898 123.562 13.8898H121.807V10.9233H123.562C124.679 10.9233 125.622 11.2114 125.622 12.4065ZM130.046 19.1026L130.8 17.2162H135.441L136.181 19.1026H138.429L134.295 9.02254H131.946L127.798 19.1026H130.046H130.046ZM132.888 11.8162C132.976 11.6146 133.048 11.413 133.121 11.0241C133.193 11.413 133.266 11.6146 133.338 11.8162L134.759 15.4306H131.482L132.888 11.8162H132.888ZM147.465 16.3666C147.465 14.8546 146.493 14.0626 145.435 13.7746C146.421 13.4434 147.059 12.6802 147.059 11.5714C147.059 9.71372 145.435 8.82094 143.056 8.82094C141.997 8.82094 140.866 8.99372 139.691 9.48334V11.5425C140.924 10.9522 141.954 10.7506 142.867 10.7649C144.158 10.7649 144.883 11.1105 144.883 11.917C144.883 12.6226 144.26 12.9681 143.303 12.9681H141.17L141.156 14.869H143.448C144.434 14.869 145.275 15.1138 145.275 16.0498C145.275 17.0866 144.216 17.3602 143.114 17.3602C142.041 17.3746 140.851 17.2306 139.517 16.5826V18.6562C140.866 19.1314 142.07 19.3042 143.274 19.3042C145.29 19.3042 147.465 18.613 147.465 16.3666H147.465ZM149.569 9.02254V19.1026H153.934C155.704 19.1026 157.923 18.5698 157.923 16.2802C157.923 14.797 156.98 14.0626 155.979 13.7746C156.878 13.4722 157.517 12.7522 157.517 11.5714C157.517 9.84335 156.168 9.02255 154.007 9.02255H149.569V9.02254ZM155.747 16.0498C155.747 17.1442 154.877 17.3458 153.905 17.3458H151.73V14.7538H154.021C154.891 14.7538 155.747 14.9842 155.747 16.0498V16.0498ZM155.356 11.9457C155.356 12.7234 154.761 13.0978 153.934 13.0978H151.744V10.7938H153.818C154.775 10.7938 155.356 11.1538 155.356 11.9457ZM168.917 19.1026V9.02254H166.872L162.144 15.6034C162.173 15.1858 162.187 14.6818 162.187 14.221V9.02254H160.012V19.1026H162.057L166.785 12.5218C166.756 12.9394 166.741 13.4434 166.741 13.9042V19.1026H168.917ZM170.672 9.02254V10.9665H173.791V19.1026H175.952V10.9665H179.07V9.02254H170.672H170.672ZM189.731 19.1026V9.02254H187.685L182.957 15.6034C182.986 15.1858 183.001 14.6818 183.001 14.221V9.02254H180.825V19.1026H182.87L187.598 12.5218C187.569 12.9394 187.555 13.4434 187.555 13.9042V19.1026H189.731ZM194.024 19.1026L196.591 15.6754H198.114V19.1026H200.29V9.02254H196.156C194.01 9.02254 192.081 9.97297 192.081 12.3922C192.081 14.0338 193.038 14.9698 194.343 15.4018L191.515 19.1026H194.024H194.024ZM194.314 12.3922C194.314 11.3841 195.068 10.9233 196.171 10.9233H198.114V13.8754H196.171C195.068 13.8754 194.314 13.4002 194.314 12.3922Z" fill="#E31E24" />
        <path d="M65.4601 33.8391V25.703H69.9562V33.8391H72.1172V23.759H63.2845V33.8391H65.4601ZM74.7719 23.759V33.8391H76.9474V30.5271H78.6008C81.052 30.5271 82.9809 29.7495 82.9809 27.143C82.9809 24.5366 81.052 23.759 78.6008 23.759H74.7719V23.759ZM80.7619 27.143C80.7619 28.3239 79.8191 28.6263 78.7024 28.6263H76.9474V25.6598H78.7024C79.8191 25.6598 80.7619 25.9478 80.7619 27.143ZM84.9249 23.759V33.8391H92.1622V31.9383H87.1005V29.6918H91.6401V27.8054H87.1005V25.6598H92.0752V23.759H84.9249ZM95.484 36.0279V33.8391H102.649V36.0279H104.563V31.9383H103.272V23.759H96.3688C96.3688 26.567 96.0642 29.6199 94.7588 31.9383H93.5696V36.0279H95.484H95.484ZM98.3992 25.703H101.097V31.9383H97.0649C97.9351 30.2823 98.2542 27.9351 98.3992 25.703ZM108.741 33.8391V25.703H113.237V33.8391H115.398V23.759H106.565V33.8391H108.741ZM118.053 23.759V33.8391H120.228V30.5271H121.882C124.333 30.5271 126.262 29.7495 126.262 27.143C126.262 24.5366 124.333 23.759 121.882 23.759H118.053V23.759ZM124.043 27.143C124.043 28.3239 123.1 28.6263 121.983 28.6263H120.228V25.6598H121.983C123.1 25.6598 124.043 25.9478 124.043 27.143ZM137.111 33.8391V23.759H135.066L130.338 30.3398C130.367 29.9222 130.381 29.4182 130.381 28.9574V23.759H128.206V33.8391H130.251L134.979 27.2583C134.95 27.6759 134.935 28.1799 134.935 28.6407V33.8391H137.111ZM146.495 23.759V27.8199H141.941V23.759H139.765V33.8391H141.941V29.7782H146.495V33.8391H148.671V23.759H146.495ZM160.23 33.8391V23.759H158.185L153.457 30.3398C153.486 29.9222 153.501 29.4182 153.501 28.9574V23.759H151.325V33.8391H153.37L158.098 27.2583C158.069 27.6759 158.055 28.1799 158.055 28.6407V33.8391H160.23ZM171.848 23.759L168.382 29.0007L164.901 23.759H162.885V33.8391H165.061V27.6183L167.744 31.6791H169.006L171.689 27.6326V33.8391H173.864V23.759H171.848H171.848ZM177.723 33.8391L178.477 31.9527H183.118L183.858 33.8391H186.106L181.972 23.759H179.623L175.475 33.8391H177.723H177.723ZM180.565 26.5526C180.653 26.351 180.725 26.1494 180.798 25.7606C180.87 26.1494 180.943 26.351 181.015 26.5526L182.437 30.1671H179.159L180.566 26.5526H180.565ZM185.671 23.759V25.703H188.79V33.8391H190.951V25.703H194.069V23.759H185.671ZM195.824 23.759V33.8391H203.062V31.9383H198V29.6918H202.539V27.8054H198V25.6598H202.975V23.759H195.824ZM207.051 23.759C206.789 27.3015 206.702 31.8375 204.991 31.9527C204.701 31.9671 204.483 31.9383 204.295 31.8807V33.7815C204.701 33.9255 205.078 33.9687 205.426 33.9687C208.24 33.9543 208.704 29.9942 209.052 25.703H211.837V33.8391H214.012V23.759H207.051H207.051ZM216.667 23.759V33.8391H223.904V31.9383H218.842V29.6918H223.382V27.8054H218.842V25.6598H223.817V23.759H216.667ZM232.824 33.8391V28.6407C232.824 28.1799 232.839 27.6758 232.868 27.2583L228.14 33.8391H226.095V23.759H228.27V28.9574C228.27 29.4182 228.256 29.9223 228.227 30.3398L232.955 23.759H235V33.8391H232.824ZM232.824 22.4054V20.8358C232.056 21.311 231.33 21.455 230.547 21.455C229.764 21.455 229.053 21.311 228.285 20.8358V22.4054C228.923 22.8518 229.605 23.0534 230.547 23.0534C231.49 23.0534 232.186 22.8518 232.824 22.4054Z" fill="#E31E24" />
        <path d="M63.9107 44.5791V42.2305H65.1196L66.8284 44.5791H67.5447L65.6121 41.9194L67.388 39.393H66.6717L65.0972 41.6378H63.9107V39.393H63.284V44.5791H63.9107ZM67.6641 41.986C67.6641 43.327 68.567 44.668 70.3951 44.668C72.2233 44.668 73.1262 43.327 73.1262 41.986C73.1262 40.6451 72.2233 39.3041 70.3951 39.3041C68.567 39.3041 67.6641 40.6451 67.6641 41.986ZM72.492 41.986C72.492 43.0529 71.8129 44.0753 70.3951 44.0753C68.9774 44.0753 68.2983 43.0529 68.2983 41.986C68.2983 40.9192 68.9774 39.8968 70.3951 39.8968C71.8129 39.8968 72.492 40.9192 72.492 41.986ZM77.8721 39.393V41.6823H74.7753V39.393H74.1485V44.5791H74.7753V42.275H77.8721V44.5791H78.4988V39.393H77.8721ZM79.5211 42.0231C79.5136 43.7493 80.9463 44.668 82.2597 44.668C82.8193 44.668 83.3416 44.5421 83.7744 44.3198V43.6975C83.4163 43.9494 82.9312 44.0753 82.394 44.0753C81.312 44.0753 80.1479 43.4085 80.1554 42.0231C80.1629 40.5414 81.2896 39.8968 82.3716 39.8968C82.8641 39.8968 83.3566 40.0228 83.7371 40.2746V39.6523C83.2969 39.4226 82.7894 39.3042 82.2671 39.3042C80.909 39.3042 79.5286 40.2228 79.5211 42.0231V42.0231ZM84.8266 44.5791L85.3638 43.327H88.1769L88.7142 44.5791H89.3858L87.1173 39.393H86.4234L84.1475 44.5791H84.8266ZM86.6846 40.2302C86.7144 40.1635 86.7368 40.1043 86.7667 40.0302C86.7965 40.1043 86.8189 40.1635 86.8487 40.2302L87.9307 42.7491H85.61L86.6846 40.2302ZM91.1543 39.393C90.9752 41.6823 90.826 44.0309 89.8783 44.0309C89.7142 44.0309 89.6246 44.016 89.5201 43.979V44.5717C89.6843 44.6309 89.841 44.6532 89.9828 44.6532C91.3483 44.6458 91.5423 42.3491 91.7513 39.9857H93.7436V44.5791H94.3704V39.393H91.1543ZM95.1614 39.393V39.9857H96.997V44.5791H97.6238V39.9857H99.4594V39.393H95.1614ZM104.601 44.5791V39.393H104.019L100.877 43.5345C100.877 43.3863 100.877 43.2381 100.877 43.09V39.393H100.25V44.5791H100.832L103.974 40.4302C103.974 40.5784 103.974 40.7266 103.974 40.8747V44.5791H104.601V44.5791ZM109.697 39.393V41.6823H106.601V39.393H105.974V44.5791H106.601V42.275H109.697V44.5791H110.324V39.393H109.697ZM112.324 44.5791V39.9857H115.13V39.393H111.697V44.5791H112.324H112.324ZM115.301 41.9861C115.301 43.327 116.204 44.668 118.032 44.668C119.86 44.668 120.763 43.327 120.763 41.9861C120.763 40.6451 119.86 39.3042 118.032 39.3042C116.204 39.3042 115.301 40.6451 115.301 41.9861ZM120.129 41.9861C120.129 43.0529 119.45 44.0753 118.032 44.0753C116.614 44.0753 115.935 43.0529 115.935 41.9861C115.935 40.9192 116.614 39.8968 118.032 39.8968C119.45 39.8968 120.129 40.9192 120.129 41.9861ZM121.786 39.393V44.5791H123.987C124.748 44.5791 125.912 44.3346 125.912 43.1566C125.912 42.3121 125.3 41.9712 124.867 41.8527C125.278 41.7342 125.703 41.3638 125.703 40.7044C125.703 39.8301 124.994 39.393 123.927 39.393H121.786ZM125.278 43.09C125.278 43.942 124.517 43.9864 123.86 43.9864H122.412V42.1935H124.032C124.532 42.1935 125.278 42.2824 125.278 43.09ZM125.069 40.7933C125.069 41.386 124.591 41.6008 124.047 41.6008H122.412V39.9857H123.875C124.614 39.9857 125.069 40.1784 125.069 40.7933V40.7933ZM126.867 44.5791L127.404 43.327H130.218L130.755 44.5791H131.426L129.158 39.393H128.464L126.188 44.5791H126.867ZM128.725 40.2302C128.755 40.1635 128.777 40.1043 128.807 40.0302C128.837 40.1043 128.859 40.1635 128.889 40.2302L129.971 42.7492H127.651L128.725 40.2302ZM132.419 44.5791L133.896 42.6825H133.904H135.247V44.5791H135.874V39.393H133.904C132.852 39.393 131.882 39.8894 131.882 41.0378C131.882 41.9268 132.456 42.4232 133.202 42.601L131.658 44.5791H132.419L132.419 44.5791ZM132.531 41.0378C132.531 40.2969 133.135 39.9857 133.881 39.9857H135.247V42.0898H133.881C133.135 42.0898 132.531 41.7786 132.531 41.0377V41.0378ZM139.731 44.5791V42.2306H140.94L142.649 44.5791H143.366L141.433 41.9194L143.209 39.393H142.492L140.918 41.6378H139.731V39.393H139.105V44.5791H139.731ZM143.485 41.9861C143.485 43.327 144.388 44.668 146.216 44.668C148.044 44.668 148.947 43.3271 148.947 41.9861C148.947 40.6451 148.044 39.3042 146.216 39.3042C144.388 39.3042 143.485 40.6451 143.485 41.9861ZM148.313 41.9861C148.313 43.0529 147.634 44.0753 146.216 44.0753C144.798 44.0753 144.119 43.0529 144.119 41.9861C144.119 40.9192 144.798 39.8968 146.216 39.8968C147.634 39.8968 148.313 40.9192 148.313 41.9861ZM154.82 39.393L152.663 42.5936L150.507 39.393H149.969V44.5791H150.596V40.5711L152.469 43.3567H152.857L154.73 40.5711V44.5791H155.357V39.393H154.82ZM157.357 44.5791V39.9857H160.364V44.5791H160.991V39.393H156.73V44.5791H157.357ZM162.408 44.5791L162.946 43.3271H165.759L166.296 44.5791H166.968L164.699 39.393H164.005L161.729 44.5791H162.408ZM164.266 40.2302C164.296 40.1636 164.319 40.1043 164.348 40.0302C164.378 40.1043 164.401 40.1636 164.43 40.2302L165.512 42.7492H163.192L164.266 40.2302ZM171.437 39.393V41.6823H168.341V39.393H167.714V44.5791H168.341V42.275H171.437V44.5791H172.064V39.393H171.437ZM177.787 44.5791V39.393H177.205L174.064 43.5345C174.064 43.3863 174.064 43.2382 174.064 43.09V39.393H173.437V44.5791H174.019L177.161 40.4302C177.161 40.5784 177.161 40.7266 177.161 40.8748V44.5791H177.787V44.5791ZM179.444 44.5791L180.921 42.6825H180.929H182.272V44.5791H182.899V39.393H180.929C179.877 39.393 178.907 39.8894 178.907 41.0378C178.907 41.9268 179.481 42.4232 180.227 42.6011L178.683 44.5792H179.444L179.444 44.5791ZM179.556 41.0378C179.556 40.2969 180.16 39.9857 180.906 39.9857H182.272V42.0898H180.906C180.16 42.0898 179.556 41.7787 179.556 41.0378V41.0378Z" fill="#E31E24" />
        <path d="M215.207 41.9778H190.412V41.4419H215.207V41.9778Z" fill="#E31E24" />
    </g>
    <defs>
        <clipPath id="clip0">
            <rect width="235" height="48" fill="white" transform="translate(0 0.598785)" />
        </clipPath>
    </defs>
</svg>